<svg height="431pt" viewBox="0 -41 431.60235 431" width="431pt" xmlns="http://www.w3.org/2000/svg"><path d="m104.414062 132.679688s24.8125-7.796876 52.886719-7.796876 34.554688-14.570312 27.203125-25.9375c-7.351562-11.367187-38.519531-64.464843-3.128906-80.304687 35.390625-15.835937 47.980469-15.742187 60.03125 3.140625 12.054688 18.886719-6.566406 72.019531-3.28125 83.851562 3.28125 11.835938 9.683594 11.863282 9.683594 11.863282s39.855468-30.074219 68.554687-15.039063c0 0 16.253907-23.007812 43.585938-11.832031 0 0 .992187-48.101562-9.839844-53.738281 0 0-29.300781 23.011719-38.199219 12.160156-8.894531-10.847656 1.34375-32.726563 23.222656-32.726563 21.882813 0 27.375-1.511718 27.375-1.511718s62.269532 71.1875 62.269532 84.449218c0 13.265626-11.652344 37.820313-26.609375 41.722657 0 0-41.878907 30.359375-71.695313 24.527343 0 0-5.527344 78.929688-66.425781 116.601563 0 0-14.9375 28.246094-6.558594 44.347656 0 0-52.601562 30.527344-109.308593 4.894531 0 0 18.960937-40.675781 8.339843-64.039062 0 0-41.539062-35.761719-38.273437-70.519531 0 0-35.898438 18.613281-72.851563-6.011719 0 0-26.253906.113281-34.5625-12.371094 0 0 .160157-53.121094 12.894531-74.695312 0 0 4.117188-35.910156 14.738282-42.574219 0 0 50.707031-24.339844 60.371094-3.601563 0 0 7.5 24.09375-33.617188 23.628907 0 0-8.09375 19.070312-3.773438 29.242187l5.339844 23.570313s12.652344-5.269531 19.371094-5.480469c6.722656-.203125 22.257812 4.179688 22.257812 4.179688zm0 0" fill="#94c1ff" fill-rule="evenodd"/><g fill="#0e65e5"><path d="m192.320312 348.511719c-15.652343 0-33.066406-2.847657-50.953124-10.933594l-6.289063-2.839844 2.917969-6.261719c4.769531-10.285156 15.398437-40.0625 8.839844-57.082031-6.542969-5.921875-35.75-33.925781-39.246094-64.707031-13.878906 4.269531-40.589844 8.460938-68.269532-9.109375-7.300781-.246094-29.332031-2.105469-38.167968-15.378906l-1.152344-1.726563.0078125-2.074218c.0039063-2.207032.3124995-53.292969 13.1132815-76.84375 1.300781-10.554688 5.855468-38.75 17.71875-46.1875l.671875-.371094c3.847656-1.847656 38.175781-17.84375 57.65625-10.863282 5.460937 1.953126 9.558593 5.597657 11.859375 10.53125l.335937.851563c.339844 1.089844 3.113281 10.894531-3.601562 19.917969-5.777344 7.75-16.460938 11.953125-31.785157 12.511718-2.28125 6.792969-4.027343 15.582032-2.234374 19.808594l.375 1.160156 3.605468 15.960938c4.488282-1.5 10.058594-3.058594 14.226563-3.1875 6.242187-.121094 17.714843 2.644531 22.394531 3.894531 6.570312-1.875 28.421875-7.523437 52.964844-7.523437 11.519531 0 19.90625-2.769532 22.429687-7.417969 1.671875-3.0625.113281-6.324219-.964843-7.988281-6.378907-9.875-26.628907-44.042969-19.164063-69.195313 2.839844-9.597656 9.230469-16.679687 18.984375-21.039062 34.914062-15.632813 53.117188-18.527344 68.574219 5.695312 9.007812 14.113281 4.433593 39.707031.398437 62.285157-1.546875 8.65625-3.660156 20.511718-2.855468 23.414062.800781 2.902344 1.777343 4.683594 2.574218 5.71875 10.378906-6.929688 41.03125-24.917969 67.175782-15.363281 7.460937-7.644531 21.164062-15.929688 38.671874-12.660157-.292968-14.921874-2.011718-28.664062-4.351562-35.144531-11.339844 7.882813-32.007812 19.382813-42.140625 7.019531-5.507813-6.707031-6.289063-16.453124-2.042969-25.433593 5.386719-11.375 17.089844-18.445313 30.539063-18.445313 19.886719 0 25.480469-1.25 25.707031-1.304687l3.988281-.925781 2.816407 3.058593c19.230468 21.980469 63.953124 74.65625 63.953124 88.945313 0 15.746094-12.695312 42.238281-30.40625 47.945312-6.308593 4.414063-40.027343 26.816406-68.699218 25.820313-2.902344 20.628906-15.59375 80.828125-67.203125 113.847656-3.769531 7.84375-10.824219 26.667969-5.753907 36.433594l3.015626 5.78125-5.640626 3.269531c-1.585937.910156-28.398437 16.136719-64.59375 16.136719zm-39.191406-20.828125c40.679688 15.453125 78.59375 1.460937 91.90625-4.625-4.257812-18.242188 7.46875-41.277344 8.980469-44.132813l.867187-1.636719 1.574219-.976562c57.113281-35.324219 63.152344-110.523438 63.214844-111.28125l.554687-7.691406 7.566407 1.472656c21.992187 4.328125 55.394531-15.390625 66.378906-23.351562l1.039063-.753907 1.246093-.328125c11.082031-2.890625 21.496094-24.011718 21.496094-35.113281-1.066406-7.5625-30.519531-45.34375-58.113281-77.125-4.160156.484375-11.679688 1.011719-24.699219 1.011719-9.707031 0-15.765625 5.492187-18.191406 10.632812-1.96875 4.15625-1.875 8.347656.25 10.933594 1.988281 2.464844 16.308593-3.472656 28.695312-13.203125l3.46875-2.714844 3.90625 2.03125c12.695313 6.609375 13.914063 40.390625 13.511719 59.9375l-.207031 9.941407-9.203125-3.761719c-22.027344-9.027344-34.875 8.6875-35.421875 9.445312l-3.449219 4.886719-5.292969-2.773438c-20.433593-10.683593-51.152343 6.804688-61.277343 14.4375l-1.839844 1.386719-2.300782-.007812c-1.1875-.007813-11.703124-.519531-16.234374-16.863281-1.5625-5.617188-.113282-14.410157 2.574218-29.464844 3.054688-17.09375 7.671875-42.921875 1.53125-52.539063-8.511718-13.335937-15.140625-16.851562-51.492187-.585937-6.035157 2.703125-9.789063 6.777344-11.472657 12.460937-4.617187 15.566407 6.566407 40.917969 17.546876 57.902344 4.632812 7.167969 5.179687 15.160156 1.496093 21.929687-2.953125 5.429688-11.359375 14.546876-34.429687 14.546876-26.71875 0-50.597656 7.402343-50.839844 7.476562l-1.9375.609375-1.972656-.550781c-5.617188-1.582032-16.042969-4.046875-20.183594-3.910156-3.96875.121093-12.515625 3.105468-16.96875 4.957031l-7.484375 3.113281-7.007813-30.953125c-4.773437-12.507813 3.097657-31.757813 4.027344-33.941406l1.785156-4.207031 4.582032.050781c13 .125 21.996094-2.371094 25.5-7.074219 2.179687-2.925781 1.796875-6.246094 1.59375-7.335938-.558594-1-1.566406-2.136718-3.828125-2.945312-10.53125-3.785156-34.046875 4.109375-46.71875 10.109375-4.5625 3.394531-9.601563 22.222656-11.339844 37.398437l-.160156 1.445313-.742188 1.25c-9.175781 15.53125-11.660156 52.917969-11.925781 68.875 6.210938 6.40625 22.101562 7.890625 27.632812 7.890625h.0625 2.074219l1.730469 1.148438c33.214844 22.140624 65.601562 5.804687 65.925781 5.636718l11.113281-5.761718-1.179687 12.457031c-2.902344 30.792969 35.546875 64.367187 35.9375 64.703125l1.136719.980468.621094 1.363282c9.152343 20.152344-.480469 50.039062-5.613282 63.1875zm0 0"/><path d="m214.101562 21.78125c12.050782 18.886719 7.902344 62.292969 11.183594 74.128906 3.285156 11.835938 6.828125 13.652344 6.828125 13.652344s2.992188 18.792969 13.652344 13.652344c-.132813-.410156-7.519531-17.132813-7.640625-17.582032-3.285156-11.832031 15.335938-64.964843 3.28125-83.851562-9.1875-14.398438-18.722656-17.839844-38.40625-11.660156 4.09375 2.390625 7.628906 6.222656 11.101562 11.660156zm0 0" fill-rule="evenodd"/><path d="m242.234375 130.925781c-2.078125 0-4.105469-.492187-5.988281-1.472656-6.566406-3.4375-9.351563-11.945313-10.394532-16.40625-2.210937-2.515625-4.859374-7.070313-7.144531-15.3125-1.308593-4.730469-1.582031-12.304687-1.917969-21.898437-.601562-16.613282-1.414062-39.367188-8.441406-50.378907-2.996094-4.6875-5.785156-7.683593-8.789062-9.4375-2.332032-1.363281-3.644532-3.976562-3.34375-6.660156.308594-2.6875 2.160156-4.941406 4.742187-5.753906 22.125-6.960938 35.105469-2.902344 46.207031 14.503906 9.007813 14.109375 4.433594 39.703125.398438 62.285156-1.546875 8.65625-3.660156 20.507813-2.855469 23.410157.140625.253906 2.246094 5.050781 4.136719 9.355468 1.777344 4.074219 3.355469 7.757813 3.425781 7.953125 1.046875 3.246094-.46875 6.765625-3.53125 8.246094-2.15625 1.042969-4.363281 1.566406-6.503906 1.566406zm-25.171875-116.859375c.9375 1.246094 1.867188 2.59375 2.789062 4.042969 9.03125 14.152344 9.886719 38.042969 10.574219 57.238281.261719 7.238282.507813 14.117188 1.203125 17.710938.566406-4.171875 1.433594-9.132813 2.492188-15.0625 3.054687-17.09375 7.671875-42.921875 1.53125-52.539063-5.058594-7.929687-9.449219-11.984375-18.589844-11.390625zm0 0"/><path d="m360.34375 15.1875c12.691406 21.507812 37.128906 73.730469 37.128906 84.074219 0 13.265625-11.648437 37.820312-26.605468 41.722656 0 0-41.882813 30.359375-71.699219 24.527344 0 0-5.527344 78.929687-66.421875 116.601562 0 0-14.941406 28.246094-6.5625 44.351563 0 0-19.449219 11.203125-47.375 14.308594 41.777344 4.664062 74.683594-14.308594 74.683594-14.308594-8.378907-16.101563 6.558593-44.351563 6.558593-44.351563 60.898438-37.667969 66.425781-116.601562 66.425781-116.601562 29.8125 5.832031 71.695313-24.527344 71.695313-24.527344 14.957031-3.898437 26.605469-28.457031 26.605469-41.722656s-62.269532-84.449219-62.269532-84.449219zm0 0" fill-rule="evenodd"/><path d="m192.265625 348.34375c-4.601563 0-9.34375-.238281-14.21875-.785156-3.453125-.382813-6.066406-3.308594-6.066406-6.78125 0-3.484375 2.613281-6.402344 6.074219-6.785156 18.023437-2.003907 32.453124-7.632813 39.671874-10.933594-4.261718-18.242188 7.46875-41.273438 8.980469-44.128906.566407-1.070313 1.40625-1.976563 2.441407-2.617188 57.109374-35.328125 63.152343-110.523438 63.214843-111.28125.140625-1.949219 1.105469-3.753906 2.65625-4.9375 1.546875-1.1875 3.519531-1.652344 5.464844-1.28125 21.984375 4.335938 55.394531-15.390625 66.378906-23.351562.683594-.5 1.460938-.863282 2.285157-1.078126 11.078124-2.890624 21.492187-24.015624 21.492187-35.113281-.054687-7.667969-22.03125-56.636719-36.179687-80.605469-1.140626-1.933593-1.257813-4.300781-.3125-6.335937.9375-2.039063 2.816406-3.480469 5.035156-3.859375l2.164062-.375c2.351563-.402344 4.734375.441406 6.300782 2.234375 19.230468 21.980469 63.953124 74.65625 63.953124 88.945313 0 15.746093-12.695312 42.238281-30.40625 47.945312-6.308593 4.414062-40.027343 26.816406-68.699218 25.824219-2.902344 20.625-15.59375 80.824219-67.203125 113.84375-3.769531 7.84375-10.824219 26.667969-5.753907 36.433593 1.6875 3.242188.519532 7.234376-2.636718 9.0625-1.265625.722657-28.160156 15.960938-64.636719 15.960938zm45.722656-61.464844c-3.773437 7.84375-10.828125 26.667969-5.753906 36.433594.753906 1.441406.9375 3.027344.640625 4.507812 5.085938-1.707031 9.21875-3.433593 12.15625-4.773437-4.257812-18.242187 7.46875-41.265625 8.980469-44.121094.566406-1.070312 1.40625-1.976562 2.441406-2.617187 46.855469-28.980469 59.335937-84.796875 62.34375-104.328125-4.574219.8125-9.175781 1.199219-13.605469 1.058593-2.902344 20.621094-15.597656 80.820313-67.203125 113.839844zm135.898438-139.667968c-.546875.382812-1.292969.898437-2.226563 1.519531 1.992188-.976563 3.925782-1.972657 5.785156-2.96875-1.164062.574219-2.351562 1.0625-3.558593 1.449219zm15.742187-89.25c8.042969 17.730468 14.667969 34.683593 14.667969 41.308593 0 14.019531-10.058594 36.550781-24.769531 45.355469 6.246094-3.464844 11.410156-6.824219 14.640625-9.164062.6875-.5 1.460937-.863282 2.289062-1.078126 11.078125-2.890624 21.492188-24.015624 21.492188-35.113281-.675781-4.777343-12.648438-21.578125-28.320313-41.308593zm0 0"/></g><path d="m245.765625 252.921875c-3.769531 0-6.824219-3.058594-6.824219-6.824219v-27.308594c0-3.765624 3.054688-6.824218 6.824219-6.824218 3.773437 0 6.828125 3.058594 6.828125 6.824218v27.308594c0 3.765625-3.050781 6.824219-6.828125 6.824219zm0 0" fill="#fff"/><path d="m259.421875 239.269531h-27.308594c-3.773437 0-6.828125-3.058593-6.828125-6.824219 0-3.769531 3.054688-6.828124 6.828125-6.828124h27.308594c3.769531 0 6.824219 3.058593 6.824219 6.828124 0 3.765626-3.050782 6.824219-6.824219 6.824219zm0 0" fill="#fff"/><path d="m361.820312 150.523438c-3.773437 0-6.828124-3.058594-6.828124-6.828126v-27.304687c0-3.769531 3.054687-6.828125 6.828124-6.828125 3.773438 0 6.828126 3.058594 6.828126 6.828125v27.304687c0 3.769532-3.054688 6.828126-6.828126 6.828126zm0 0" fill="#fff"/><path d="m375.472656 136.871094h-27.304687c-3.773438 0-6.828125-3.058594-6.828125-6.828125s3.054687-6.828125 6.828125-6.828125h27.304687c3.773438 0 6.828125 3.058594 6.828125 6.828125s-3.050781 6.828125-6.828125 6.828125zm0 0" fill="#fff"/><path d="m157.019531 225.617188c-1.746093 0-3.492187-.667969-4.824219-2-30.910156-30.910157-15.195312-55.375-14.507812-56.398438 2.078125-3.136719 6.3125-3.996094 9.464844-1.894531 3.113281 2.074219 3.972656 6.261719 1.9375 9.394531-.503906.828125-9.777344 16.710938 12.753906 39.246094 2.664062 2.664062 2.664062 6.984375 0 9.652344-1.328125 1.332031-3.074219 2-4.824219 2zm0 0" fill="#fff"/></svg>